<?xml version="1.0" standalone="no"?>
<!DOCTYPE svg PUBLIC "-//W3C//DTD SVG 20010904//EN"
 "http://www.w3.org/TR/2001/REC-SVG-20010904/DTD/svg10.dtd">
<svg version="1.0" xmlns="http://www.w3.org/2000/svg"
 width="100.000000pt" height="100.000000pt" viewBox="0 0 100.000000 100.000000"
 preserveAspectRatio="xMidYMid meet">
<metadata>
Created by potrace 1.11, written by Peter Selinger 2001-2013
</metadata>
<g transform="translate(0.000000,100.000000) scale(0.100000,-0.100000)"
fill="#000000" stroke="none">
<path d="M430 933 c-69 -11 -196 -49 -287 -84 -111 -44 -143 -71 -143 -121 0
-38 48 -88 85 -88 15 0 78 27 139 59 242 129 347 157 459 124 66 -19 177 -77
241 -125 50 -38 66 -42 73 -21 9 25 -164 161 -262 208 -97 46 -209 64 -305 48z"/>
<path d="M392 606 c-116 -29 -226 -107 -297 -210 l-38 -56 36 -54 c65 -98 182
-180 300 -212 181 -48 383 33 509 204 l41 55 -19 36 c-21 40 -101 124 -155
165 -96 71 -259 102 -377 72z m304 -161 c94 -31 188 -84 192 -108 5 -26 -134
-159 -198 -191 -124 -59 -254 -59 -379 1 -59 28 -201 161 -201 188 0 17 59 57
129 87 148 64 311 72 457 23z"/>
<path d="M340 417 c-40 -14 -47 -34 -30 -97 15 -54 76 -116 132 -130 59 -16
126 -6 172 27 69 49 112 169 68 192 -9 5 -34 12 -55 16 l-37 7 6 -31 c12 -59
-37 -121 -96 -121 -58 0 -108 62 -96 120 6 34 -5 37 -64 17z"/>
</g>
</svg>
